<svg width="88" height="150" viewBox="0 0 88 150" fill="none" xmlns="http://www.w3.org/2000/svg">
<path d="M44.2485 149.597L41.2766 139.178L41.2765 70.5126H47.4308V139.177L44.2485 149.597Z" fill="url(#paint0_linear_34_13)" stroke="#585757" stroke-width="0.2" stroke-linejoin="round"/>
<path d="M63.4839 105.475L62.3281 101.051L62.328 70.5125H64.7216V101.05L63.4839 105.475Z" fill="url(#paint1_linear_34_13)" stroke="#585757" stroke-width="0.2" stroke-linejoin="round"/>
<path d="M26.4443 105.475L25.2885 101.051L25.2885 70.5125H27.6821V101.05L26.4443 105.475Z" fill="url(#paint2_linear_34_13)" stroke="#585757" stroke-width="0.2" stroke-linejoin="round"/>
<path d="M81.1596 66.8431H6.10988L1.14551 62.8029H87L81.1596 66.8431Z" fill="url(#paint3_linear_34_13)" stroke="#585757" stroke-width="0.2"/>
<path d="M63.5248 43.6118H25.9175L29.8079 47.9345H43V59.1735H46.5V47.9345H59.6344L63.5248 43.6118Z" fill="url(#paint4_linear_34_13)" stroke="#585757" stroke-width="0.2"/>
<path d="M1.81025 77.445L5.75495 70.6126L9.69966 77.445H1.81025Z" fill="url(#paint5_linear_34_13)" stroke="#585757" stroke-width="0.2"/>
<path d="M1 79.4902H10.5099" stroke="url(#paint6_linear_34_13)"/>
<path d="M77.7269 77.445L81.6716 70.6126L85.6163 77.445H77.7269Z" fill="url(#paint7_linear_34_13)" stroke="#585757" stroke-width="0.2"/>
<path d="M76.9166 79.4902H86.4265" stroke="url(#paint8_linear_34_13)"/>
<path d="M26.5 1V33.5H30.5V14L42.5 31.5L54.5 14V33.5H58.5V1L42.5 25L26.5 1Z" fill="url(#paint9_linear_34_13)"/>
<path d="M47 9H42.5V19L47 12.5V9Z" fill="url(#paint10_linear_34_13)"/>
<path d="M26.5 1V33.5H30.5V14L42.5 31.5L54.5 14V33.5H58.5V1L42.5 25L26.5 1Z" stroke="#585757" stroke-width="0.2"/>
<path d="M47 9H42.5V19L47 12.5V9Z" stroke="#585757" stroke-width="0.2"/>
<path d="M47 30L42.5 36.5V39H65.5V35.5H47V30Z" fill="url(#paint11_linear_34_13)" stroke="#585757" stroke-width="0.2"/>
<defs>
<linearGradient id="paint0_linear_34_13" x1="44.3537" y1="70.4126" x2="44.3537" y2="149.95" gradientUnits="userSpaceOnUse">
<stop stop-color="#FFEE95"/>
<stop offset="1" stop-color="#C1A300"/>
</linearGradient>
<linearGradient id="paint1_linear_34_13" x1="63.5248" y1="70.4125" x2="63.5248" y2="105.858" gradientUnits="userSpaceOnUse">
<stop stop-color="#FFEE95"/>
<stop offset="1" stop-color="#C1A300"/>
</linearGradient>
<linearGradient id="paint2_linear_34_13" x1="26.4853" y1="70.4125" x2="26.4853" y2="105.858" gradientUnits="userSpaceOnUse">
<stop stop-color="#FFEE95"/>
<stop offset="1" stop-color="#C1A300"/>
</linearGradient>
<linearGradient id="paint3_linear_34_13" x1="44.0728" y1="62.8029" x2="44.0728" y2="66.8431" gradientUnits="userSpaceOnUse">
<stop stop-color="#FFEE95"/>
<stop offset="1" stop-color="#C1A300"/>
</linearGradient>
<linearGradient id="paint4_linear_34_13" x1="44.7212" y1="43.6118" x2="44.7212" y2="59.1735" gradientUnits="userSpaceOnUse">
<stop stop-color="#FFEE95"/>
<stop offset="1" stop-color="#C1A300"/>
</linearGradient>
<linearGradient id="paint5_linear_34_13" x1="5.75495" y1="70.4126" x2="5.75495" y2="79.9225" gradientUnits="userSpaceOnUse">
<stop stop-color="#FFEE95"/>
<stop offset="1" stop-color="#C1A300"/>
</linearGradient>
<linearGradient id="paint6_linear_34_13" x1="5.75495" y1="79.4902" x2="5.75495" y2="80.4902" gradientUnits="userSpaceOnUse">
<stop stop-color="#FFEE95"/>
<stop offset="1" stop-color="#C1A300"/>
</linearGradient>
<linearGradient id="paint7_linear_34_13" x1="81.6716" y1="70.4126" x2="81.6716" y2="79.9225" gradientUnits="userSpaceOnUse">
<stop stop-color="#FFEE95"/>
<stop offset="1" stop-color="#C1A300"/>
</linearGradient>
<linearGradient id="paint8_linear_34_13" x1="81.6716" y1="79.4902" x2="81.6716" y2="80.4902" gradientUnits="userSpaceOnUse">
<stop stop-color="#FFEE95"/>
<stop offset="1" stop-color="#C1A300"/>
</linearGradient>
<linearGradient id="paint9_linear_34_13" x1="42.5" y1="1" x2="42.5" y2="33.5" gradientUnits="userSpaceOnUse">
<stop stop-color="#FFEE95"/>
<stop offset="1" stop-color="#C1A300"/>
</linearGradient>
<linearGradient id="paint10_linear_34_13" x1="42.5" y1="1" x2="42.5" y2="33.5" gradientUnits="userSpaceOnUse">
<stop stop-color="#FFEE95"/>
<stop offset="1" stop-color="#C1A300"/>
</linearGradient>
<linearGradient id="paint11_linear_34_13" x1="54" y1="30" x2="54" y2="39" gradientUnits="userSpaceOnUse">
<stop stop-color="#FFEE95"/>
<stop offset="1" stop-color="#C1A300"/>
</linearGradient>
</defs>
</svg>
