<svg width="120" height="10" viewBox="0 0 120 10" fill="none" xmlns="http://www.w3.org/2000/svg">
<path d="M0.860795 0.272727H2.79545L5.38636 6.59659H5.48864L8.07955 0.272727H10.0142V9H8.49716V3.00426H8.41619L6.00426 8.97443H4.87074L2.45881 2.99148H2.37784V9H0.860795V0.272727ZM12.8565 9H11.169L14.2415 0.272727H16.1932L19.2699 9H17.5824L15.2514 2.0625H15.1832L12.8565 9ZM12.9119 5.57812H17.5142V6.84801H12.9119V5.57812ZM18.9812 1.59801V0.272727H25.9442V1.59801H23.2468V9H21.6786V1.59801H18.9812ZM27.2866 9V0.272727H28.8675V3.96733H32.9116V0.272727H34.4968V9H32.9116V5.29261H28.8675V9H27.2866ZM36.2163 9V0.272727H41.8924V1.59801H37.7972V3.96733H41.5984V5.29261H37.7972V7.67472H41.9265V9H36.2163ZM49.0067 0.272727H50.5877V5.97443C50.5877 6.59943 50.44 7.14915 50.1445 7.62358C49.8519 8.09801 49.44 8.46875 48.9087 8.7358C48.3775 9 47.7567 9.1321 47.0465 9.1321C46.3335 9.1321 45.7113 9 45.18 8.7358C44.6488 8.46875 44.2369 8.09801 43.9442 7.62358C43.6516 7.14915 43.5053 6.59943 43.5053 5.97443V0.272727H45.0863V5.84233C45.0863 6.20597 45.1658 6.52983 45.3249 6.81392C45.4869 7.09801 45.7141 7.32102 46.0067 7.48295C46.2994 7.64205 46.646 7.72159 47.0465 7.72159C47.4471 7.72159 47.7937 7.64205 48.0863 7.48295C48.3817 7.32102 48.609 7.09801 48.7681 6.81392C48.9272 6.52983 49.0067 6.20597 49.0067 5.84233V0.272727ZM57.049 2.67188C57.0092 2.29972 56.8416 2.00994 56.5462 1.80256C56.2536 1.59517 55.8729 1.49148 55.4041 1.49148C55.0746 1.49148 54.7919 1.54119 54.5561 1.64062C54.3203 1.74006 54.1399 1.875 54.0149 2.04545C53.8899 2.21591 53.826 2.41051 53.8232 2.62926C53.8232 2.81108 53.8643 2.96875 53.9467 3.10227C54.032 3.2358 54.147 3.34943 54.2919 3.44318C54.4368 3.53409 54.5973 3.6108 54.7734 3.6733C54.9496 3.7358 55.1271 3.78835 55.3061 3.83097L56.1243 4.03551C56.4538 4.11222 56.7706 4.21591 57.0746 4.34659C57.3814 4.47727 57.6555 4.64205 57.897 4.84091C58.1413 5.03977 58.3345 5.27983 58.4766 5.56108C58.6186 5.84233 58.6896 6.17187 58.6896 6.54972C58.6896 7.06108 58.5589 7.51136 58.2976 7.90057C58.0362 8.28693 57.6584 8.58949 57.1641 8.80824C56.6726 9.02415 56.0774 9.1321 55.3786 9.1321C54.6996 9.1321 54.1101 9.02699 53.6101 8.81676C53.1129 8.60653 52.7237 8.29972 52.4425 7.89631C52.1641 7.4929 52.0135 7.00142 51.9908 6.42188H53.5462C53.5689 6.72585 53.6626 6.97869 53.8274 7.1804C53.9922 7.3821 54.2067 7.53267 54.4709 7.6321C54.7379 7.73153 55.0362 7.78125 55.3658 7.78125C55.7095 7.78125 56.0107 7.73011 56.2692 7.62784C56.5305 7.52273 56.7351 7.37784 56.8828 7.19318C57.0305 7.00568 57.1058 6.78693 57.1087 6.53693C57.1058 6.30966 57.0391 6.12216 56.9084 5.97443C56.7777 5.82386 56.5945 5.69886 56.3587 5.59943C56.1257 5.49716 55.853 5.40625 55.5405 5.3267L54.5476 5.07102C53.8288 4.88636 53.2607 4.60653 52.843 4.23153C52.4283 3.85369 52.2209 3.35227 52.2209 2.72727C52.2209 2.21307 52.3601 1.76278 52.6385 1.37642C52.9197 0.990057 53.3018 0.690341 53.7848 0.477272C54.2678 0.261363 54.8146 0.153409 55.4254 0.153409C56.0447 0.153409 56.5874 0.261363 57.0533 0.477272C57.522 0.690341 57.8899 0.987216 58.157 1.3679C58.424 1.74574 58.5618 2.1804 58.5703 2.67188H57.049ZM63.0756 0.272727H65.0103L67.6012 6.59659H67.7035L70.2944 0.272727H72.229V9H70.712V3.00426H70.631L68.2191 8.97443H67.0856L64.6737 2.99148H64.5927V9H63.0756V0.272727ZM75.0714 9H73.3839L76.4563 0.272727H78.408L81.4847 9H79.7972L77.4663 2.0625H77.3981L75.0714 9ZM75.1268 5.57812H79.729V6.84801H75.1268V5.57812ZM82.6342 9V0.272727H85.907C86.5774 0.272727 87.1399 0.389204 87.5945 0.622159C88.0518 0.855113 88.397 1.18182 88.63 1.60227C88.8658 2.01989 88.9837 2.5071 88.9837 3.06392C88.9837 3.62358 88.8643 4.10937 88.6257 4.52131C88.3899 4.9304 88.0419 5.24716 87.5817 5.47159C87.1214 5.69318 86.5561 5.80398 85.8857 5.80398H83.5547V4.49148H85.6726C86.0646 4.49148 86.3857 4.4375 86.6357 4.32955C86.8857 4.21875 87.0703 4.05824 87.1896 3.84801C87.3118 3.63494 87.3729 3.37358 87.3729 3.06392C87.3729 2.75426 87.3118 2.49006 87.1896 2.27131C87.0675 2.04972 86.8814 1.8821 86.6314 1.76847C86.3814 1.65199 86.0589 1.59375 85.6641 1.59375H84.2152V9H82.6342ZM87.1428 5.04545L89.3033 9H87.5391L85.4169 5.04545H87.1428ZM92.0199 0.272727V9H90.4389V0.272727H92.0199ZM94.8526 9H93.1651L96.2376 0.272727H98.1893L101.266 9H99.5785L97.2475 2.0625H97.1793L94.8526 9ZM94.908 5.57812H99.5103V6.84801H94.908V5.57812ZM109.587 0.272727V9H108.181L104.069 3.0554H103.996V9H102.415V0.272727H103.83L107.938 6.22159H108.015V0.272727H109.587ZM119.108 4.63636C119.108 5.5767 118.932 6.3821 118.58 7.05256C118.23 7.72017 117.753 8.23153 117.148 8.58665C116.546 8.94176 115.863 9.11932 115.098 9.11932C114.334 9.11932 113.65 8.94176 113.044 8.58665C112.442 8.22869 111.965 7.71591 111.613 7.0483C111.263 6.37784 111.088 5.57386 111.088 4.63636C111.088 3.69602 111.263 2.89205 111.613 2.22443C111.965 1.55398 112.442 1.04119 113.044 0.686079C113.65 0.330966 114.334 0.153409 115.098 0.153409C115.863 0.153409 116.546 0.330966 117.148 0.686079C117.753 1.04119 118.23 1.55398 118.58 2.22443C118.932 2.89205 119.108 3.69602 119.108 4.63636ZM117.519 4.63636C117.519 3.97443 117.415 3.41619 117.208 2.96165C117.003 2.50426 116.719 2.15909 116.355 1.92614C115.992 1.69034 115.573 1.57244 115.098 1.57244C114.624 1.57244 114.205 1.69034 113.841 1.92614C113.478 2.15909 113.192 2.50426 112.985 2.96165C112.78 3.41619 112.678 3.97443 112.678 4.63636C112.678 5.2983 112.78 5.85795 112.985 6.31534C113.192 6.76989 113.478 7.11506 113.841 7.35085C114.205 7.58381 114.624 7.70028 115.098 7.70028C115.573 7.70028 115.992 7.58381 116.355 7.35085C116.719 7.11506 117.003 6.76989 117.208 6.31534C117.415 5.85795 117.519 5.2983 117.519 4.63636Z" fill="white"/>
</svg>
